<svg aria-hidden="true" width="20" height="18" viewBox="0 0 20 18" fill="none" xmlns="http://www.w3.org/2000/svg"><g clip-path="url(#smiley-face-svg)" fill="#9333EA"><path d="M9.929 12.64c-.936-.02-1.653-.157-2.337-.456a2.747 2.747 0 0 1-1.242-1.059c-.11-.174-.198-.38-.019-.537.198-.175.395-.06.547.11.917 1.022 2.108 1.255 3.381 1.066 1.072-.158 1.883-.766 2.351-1.776.056-.119.092-.272.187-.34.133-.096.335-.204.47-.167.137.038.319.245.319.378.003.26-.065.515-.197.738-.858 1.31-2.073 2.009-3.46 2.043Zm2.346-6.418c.056-.3.085-.519.14-.732.066-.26.227-.449.507-.482.284-.034.51.093.677.318.3.404.267 1.443-.054 1.83-.288.347-.814.333-1.017-.07-.143-.282-.184-.615-.253-.864Zm-5.396.015c-.08.3-.11.554-.212.777-.188.419-.66.468-.913.09-.337-.503-.362-1.077-.165-1.628.155-.436.73-.48.977-.076.159.258.22.578.312.837Z"/><path d="M.804 6.523c-.818 3.215-.101 6.051 2.13 8.431.058.062.117.123.176.182 1.2 1.2 2.693 1.94 3.876 2.455.509.221 3.114.49 3.82.386 4.19-.626 6.948-2.99 7.908-6.944.183-.774.275-1.568.272-2.363.004-1.875-.785-4.056-2.413-5.688a32.118 32.118 0 0 1-.497-.421 14.02 14.02 0 0 0-1.09-.878c-2.894-2.039-5.9-2.05-8.936-.97-2.748.978-4.513 2.933-5.246 5.81Zm5.258-4.845C8.726.57 11.398.375 14.004 2.033c.477.303 1.748 1.33 1.948 1.484l.013.01.01.012c1.017 1.078 2.182 3.05 2.155 5.076-.008.867-.125 1.729-.349 2.567-.662 2.406-2.244 4.16-4.838 5.36-2.638 1.262-6.42-.015-7.426-.679a11.753 11.753 0 0 1-2.877-2.796C1.4 11.309 1.12 8.783 1.787 6.473a7.49 7.49 0 0 1 4.275-4.795Z"/></g><defs><clipPath id="smiley-face-svg"><path fill="#fff" d="M0 0h19.44v18H0z"/></clipPath></defs></svg>